<?xml version="1.0" encoding="UTF-8" standalone="no"?>
<svg
   xmlns:dc="http://purl.org/dc/elements/1.1/"
   xmlns:cc="http://creativecommons.org/ns#"
   xmlns:rdf="http://www.w3.org/1999/02/22-rdf-syntax-ns#"
   xmlns:svg="http://www.w3.org/2000/svg"
   xmlns="http://www.w3.org/2000/svg"
   style="enable-background:new"
   id="svg8"
   version="1.1"
   viewBox="0 0 26.870804 9.9375"
   height="9.9375mm"
   width="26.870804mm">
  <g
     style="display:inline"
     id="g1315"
     transform="translate(-9.6113302,-84.027419)">
    <g
       id="text1313"
       style="font-style:italic;font-variant:normal;font-weight:bold;font-stretch:normal;font-size:10.58333302px;line-height:1.25;font-family:Futura;-inkscape-font-specification:'Futura, Bold Italic';font-variant-ligatures:normal;font-variant-caps:normal;font-variant-numeric:normal;font-feature-settings:normal;text-align:start;letter-spacing:0px;word-spacing:0px;writing-mode:lr-tb;text-anchor:start;fill:#4957B8;fill-opacity:1;stroke:none;stroke-width:0.26458332"
       aria-label="CRAB">
      <path
         id="path1321"
         style="font-style:italic;font-variant:normal;font-weight:bold;font-stretch:normal;font-size:10.58333302px;font-family:Futura;-inkscape-font-specification:'Futura, Bold Italic';font-variant-ligatures:normal;font-variant-caps:normal;font-variant-numeric:normal;font-feature-settings:normal;text-align:start;writing-mode:lr-tb;direction:ltr;text-anchor:start;fill:#4957B8;fill-opacity:1;stroke-width:0.26458332"
         d="m 17.18358,85.567164 c -0.624416,-0.3175 -1.36525,-0.53975 -2.264833,-0.53975 -1.418167,0 -2.57175,0.508 -3.323167,1.42875 -0.635,0.783167 -0.98425,1.767417 -0.98425,2.846917 0,2.19075 1.386417,3.661833 3.566584,3.661833 0.719666,0 1.344083,-0.08467 1.862666,-0.254 l 0.3175,-1.957917 c -0.60325,0.254 -1.164166,0.391584 -1.725083,0.391584 -1.259417,0 -1.957917,-0.709084 -1.957917,-1.926167 0,-1.36525 0.910167,-2.328333 2.159,-2.328333 0.719667,0 1.418167,0.254 2.010834,0.762 z" />
      <path
         id="path1323"
         style="font-style:italic;font-variant:normal;font-weight:bold;font-stretch:normal;font-size:10.58333302px;font-family:Futura;-inkscape-font-specification:'Futura, Bold Italic';font-variant-ligatures:normal;font-variant-caps:normal;font-variant-numeric:normal;font-feature-settings:normal;text-align:start;writing-mode:lr-tb;direction:ltr;text-anchor:start;fill:#4957B8;fill-opacity:1;stroke-width:0.26458332"
         d="m 19.141496,88.668081 0.3175,-1.989667 h 0.296333 c 0.846667,0 1.259417,0.254 1.259417,0.92075 0,0.687917 -0.433917,1.068917 -1.23825,1.068917 z m -0.645583,4.106333 0.455083,-2.88925 1.4605,2.88925 h 2.307167 l -1.8415,-2.9845 c 1.3335,-0.22225 2.106083,-1.132416 2.106083,-2.370666 0,-0.910167 -0.402167,-1.566334 -1.164167,-1.926167 -0.560916,-0.264583 -1.248833,-0.28575 -2.12725,-0.28575 h -2.010833 l -1.195917,7.567083 z" />
      <path
         id="path1325"
         style="font-style:italic;font-variant:normal;font-weight:bold;font-stretch:normal;font-size:10.58333302px;font-family:Futura;-inkscape-font-specification:'Futura, Bold Italic';font-variant-ligatures:normal;font-variant-caps:normal;font-variant-numeric:normal;font-feature-settings:normal;text-align:start;writing-mode:lr-tb;direction:ltr;text-anchor:start;fill:#4957B8;fill-opacity:1;stroke-width:0.26458332"
         d="m 25.565565,89.662914 0.804333,-1.735666 c 0.05292,-0.116417 0.169334,-0.41275 0.338667,-0.889 0.01058,0.28575 0.05292,0.5715 0.105833,0.85725 l 0.34925,1.767416 z m -3.683,3.1115 h 2.201333 l 0.719667,-1.42875 h 2.645833 l 0.306917,1.42875 h 2.053166 l -1.608666,-7.567083 h -2.529417 z" />
      <path
         id="path1327"
         style="font-style:italic;font-variant:normal;font-weight:bold;font-stretch:normal;font-size:10.58333302px;font-family:Futura;-inkscape-font-specification:'Futura, Bold Italic';font-variant-ligatures:normal;font-variant-caps:normal;font-variant-numeric:normal;font-feature-settings:normal;text-align:start;writing-mode:lr-tb;direction:ltr;text-anchor:start;fill:#4957B8;fill-opacity:1;stroke-width:0.26458332"
         d="m 32.116634,88.138914 0.22225,-1.481666 h 0.28575 c 0.635,0 0.941917,0.179916 0.941917,0.635 0,0.6985 -0.4445,0.846666 -1.280584,0.846666 z m -0.497417,3.153833 0.275167,-1.767416 h 0.359833 c 0.772584,0 1.132417,0.179916 1.132417,0.762 0,0.889 -0.518583,1.005416 -1.524,1.005416 z m 2.264834,-2.455333 c 0.994833,-0.137583 1.598083,-0.836083 1.598083,-1.830916 0,-0.719667 -0.391583,-1.3335 -1.026583,-1.5875 -0.497417,-0.201084 -1.185334,-0.211667 -2.116667,-0.211667 h -1.7145 l -1.2065,7.567083 h 2.497667 c 1.11125,0 1.915583,-0.02117 2.487083,-0.381 0.592667,-0.370417 0.963083,-1.058333 0.963083,-1.8415 0,-0.931333 -0.518583,-1.534583 -1.481666,-1.7145 z" />
    </g>
  </g>
</svg>
