<svg xmlns="http://www.w3.org/2000/svg" width="274" height="245" viewBox="0 0 274 245.2"><path fill="rgba(74,88,185,1.000)" d="m227.7 1 4.1-.8c1 2.1 2 3.5 2.8 4.9 5.2 1 9.8 2.4 14.4 4.8 8.6 4.3 17.3 8.3 26 12.3v.4c-3.4 3.8-7.5 7.3-8.8 12.4-1.6 6-2.5 11.8-6.2 17a28.2 28.2 0 0 1-19 12c-8.2.8-16.4-.3-23.6-4.4-7.1-4-13-9.2-21.8-8.1-7.2.8-11.2 5.5-17.3 8.5-5.8 1.3-12.1-.7-18.1.3-8.1 1.3-13.3 6.4-18.5 12.3-7-1.4-15.2-3-22 .2-7 3.5-11 11.7-11.5 19.3-.3 6.6 1.6 13.5 2.7 20-8 1.6-14.8.8-21.6 4.1A117 117 0 0 0 36 166c-9.1 17-13.8 36-16 55-1.1 8.4-1 16.8-2.4 25.2A193.2 193.2 0 0 1 1 191.5a96 96 0 0 1 0-24c1.1-8.2 2.9-16.4 5.2-24.3a143.5 143.5 0 0 1 35.6-57.4c3.8-4 7.8-7.1 10.6-12 1.7-2.6 3-5.7 6-7.1 5-2.2 10.6-2.7 15.7-4.6a60 60 0 0 0 23.7-15.3c4.5-4.8 7.4-9.7 13.7-12.3A470.5 470.5 0 0 1 202 5.9c8.6-1.7 17.3-3 25.8-4.9Zm3.7 18.4c-8.7.6-16.7 7.5-16.6 16.6-.2 7.8 6 14 13 16.2 7.5 2.4 15.8-.9 20.4-7 4.1-5.4 4-13.8-.4-19a19.7 19.7 0 0 0-16.4-6.8Z"/></svg>