<svg version="1.1" xmlns="http://www.w3.org/2000/svg" viewBox="0 0 274 246" preserveAspectRatio="xMidYMid meet" xmlns:xlink="http://www.w3.org/1999/xlink" xmlns:svgjs="http://svgjs.dev/svgjs">
<path d="M0 0 C0.33 1.65 0.66 3.3 1 5 C1.663 4.766 2.326 4.533 3.009 4.292 C7.207 3.882 10.179 5.53 13.855 7.332 C14.598 7.684 15.341 8.036 16.107 8.398 C17.672 9.143 19.234 9.894 20.794 10.651 C23.183 11.811 25.582 12.951 27.982 14.088 C29.503 14.814 31.023 15.541 32.543 16.27 C33.261 16.612 33.978 16.955 34.718 17.308 C37.503 18.664 39.793 19.793 42 22 C41.446 22.534 40.891 23.067 40.32 23.617 C35.608 28.463 33.324 31.835 32.402 38.523 C30.986 47.243 25.807 54.339 18.887 59.609 C10.744 64.481 1.007 64.308 -8.051 62.336 C-13.166 60.633 -17.539 58.12 -22.125 55.312 C-28.009 51.782 -32.461 50.165 -39.273 51.418 C-43.481 52.603 -46.394 54.221 -49.656 57.113 C-54.382 60.74 -58.176 60.59 -63.938 60.125 C-71.263 59.598 -76.585 60.177 -83 64 C-85.439 66.173 -87.457 68.292 -89.438 70.875 C-91 72 -91 72 -93.438 71.688 C-94.613 71.461 -95.789 71.234 -97 71 C-103.972 70.545 -109.935 70.287 -116 74 C-121.494 79.245 -123.675 85.164 -124.312 92.688 C-124.075 98.828 -122.954 104.938 -122 111 C-125.947 112.316 -128.529 113.02 -132.762 112.84 C-137.465 112.787 -140.739 114.351 -144.812 116.562 C-145.508 116.927 -146.203 117.291 -146.919 117.666 C-171.977 130.985 -189.418 149.267 -201 175 C-201.472 176.033 -201.944 177.065 -202.43 178.129 C-210.124 196.458 -212.716 217.055 -213.754 236.758 C-213.969 239.593 -214.368 242.233 -215 245 C-229.384 230.616 -232.134 195.84 -232.25 176.812 C-232.201 168.714 -231.813 160.922 -230 153 C-229.855 152.347 -229.709 151.694 -229.56 151.021 C-222.835 121.638 -205.657 97.159 -183.694 76.942 C-180.633 74.035 -179.606 72.134 -179 68 C-174.622 64.56 -170.251 63.498 -164.875 62.188 C-152.045 59.011 -140.6 52.41 -132.348 41.895 C-127.065 35.347 -121.877 32.529 -114.062 29.625 C-112.892 29.171 -111.722 28.718 -110.516 28.251 C-106.692 26.792 -102.852 25.385 -99 24 C-98.021 23.646 -98.021 23.646 -97.021 23.285 C-30.799 -0.59 -30.799 -0.59 0 0 Z M-12.883 22.688 C-17.184 27.675 -18.357 30.857 -18.281 37.461 C-17.739 42.354 -15.049 45.032 -11.562 48.25 C-6.58 51.653 -2.046 52.892 4 52 C9.922 50.077 13.414 46.998 17 42 C18.856 38.288 18.449 34.051 18 30 C15.142 24.284 11.464 20.865 5.438 18.75 C-1.079 17.328 -7.773 18.108 -12.883 22.688 Z " fill="#000000" transform="translate(232,0)" class=""></path>
</svg>
