
<!-- Generator: visioncortex VTracer 0.6.4 -->
<svg version="1.1" xmlns="http://www.w3.org/2000/svg" viewBox="0 0 92 104" preserveAspectRatio="xMidYMid meet">
<path d="M0 0 C4.908 1.487 8.405 4.446 12 8 C12 8.33 12 8.66 12 9 C10.02 9 8.04 9 6 9 C6 9.99 6 10.98 6 12 C5.34 12 4.68 12 4 12 C3.329 10.377 2.663 8.751 2 7.125 C1.629 6.22 1.258 5.315 0.875 4.383 C0 2 0 2 0 0 Z " fill="#000000" transform="translate(23,0)"/>
<path d="M0 0 C6.376 2.871 12.035 6.48 15 13 C15.965 15.96 16.051 17.765 16 21 C14.032 24.796 12.557 26.629 9 29 C4.928 29.328 2.128 29.42 -1.688 28 C-7.527 22.949 -9.564 17.063 -10.934 9.613 C-11.012 6.532 -10.446 4.711 -9 2 C-5.349 -0.434 -4.323 -0.629 0 0 Z " fill="#000000" transform="translate(41,12)"/>
<path d="M0 0 C3.44 0.612 5.516 1.921 8.25 4.062 C8.956 4.61 9.663 5.158 10.391 5.723 C11.187 6.355 11.187 6.355 12 7 C10.125 8.062 10.125 8.062 8 9 C7.34 8.67 6.68 8.34 6 8 C5.67 9.32 5.34 10.64 5 12 C1.753 7.867 0 5.361 0 0 Z " fill="#000000" transform="translate(0,16)"/>
<path d="M0 0 C1.114 0.598 2.227 1.196 3.375 1.812 C4.315 2.317 4.315 2.317 5.273 2.832 C7 4 7 4 9 7 C8.216 7.289 7.432 7.578 6.625 7.875 C3.903 8.849 3.903 8.849 2 11 C0.577 7.177 -0.24 4.087 0 0 Z " fill="#000000" transform="translate(56,16)"/>
<path d="M0 0 C6.06 2.146 10.907 6.473 14.18 11.988 C15.794 15.666 16.045 17.698 15.438 21.75 C13.955 25.102 12.96 26.862 10 29 C6.367 30.185 4.559 30.194 0.938 28.938 C-5.052 24.987 -8.379 19.925 -10 13 C-10.501 8.837 -10.556 5.34 -8.938 1.438 C-5.904 -0.813 -3.679 -0.437 0 0 Z " fill="#000000" transform="translate(71,26)"/>
<path d="M0 0 C2.614 1.484 4.67 3.058 7 5 C7 5.66 7 6.32 7 7 C7.66 7 8.32 7 9 7 C11.706 12.525 13.198 17.079 11.312 23.25 C9.399 25.802 7.986 26.793 5 28 C0.937 28.397 -2.53 28.159 -5.809 25.574 C-11.442 19.238 -14.256 12.529 -14 4 C-12.75 0.938 -12.75 0.938 -11 -1 C-6.949 -2.35 -3.881 -1.459 0 0 Z " fill="#000000" transform="translate(22,29)"/>
<path d="M0 0 C3.496 2.128 6.689 4.611 9.5 7.59 C13.965 12.16 19.012 13.319 25.139 14.444 C30.364 15.488 33.172 17.265 37 21 C38.758 24.515 37.93 28.279 37 32 C35.226 35.013 33.178 37.411 30 39 C26.716 38.951 23.444 38.804 20.164 38.645 C16.944 38.74 16.944 38.74 14.645 40.73 C12.89 43.152 12.429 44.569 12.062 47.5 C11.44 50.678 11.08 51.9 9 54.5 C4.714 56.643 0.782 57.314 -4 57 C-7.897 55.26 -9.471 54.059 -11.375 50.25 C-12.264 45.629 -12.361 41.284 -11.629 36.652 C-10.672 30.425 -11.644 26.478 -13.996 20.668 C-15.955 15.463 -16.813 10.462 -14.938 5.125 C-11.199 -0.904 -6.646 -1.948 0 0 Z " fill="#000000" transform="translate(54,47)"/>
<path d="M0 0 C3.937 1.312 6.227 2.919 9 6 C7.35 6.33 5.7 6.66 4 7 C4 7.99 4 8.98 4 10 C3.34 10 2.68 10 2 10 C-0.094 6.598 -0.179 3.947 0 0 Z " fill="#000000" transform="translate(6,52)"/>
<path d="M0 0 C5.652 0.374 9.903 3.24 13.855 7.152 C16.638 10.359 19.13 13.502 19.5 17.809 C19.166 21.828 18.757 24.83 15.812 27.75 C11.904 29.844 9.861 30.292 5.559 29.523 C0.545 27.518 -2.319 23.196 -4.785 18.562 C-7.041 13.191 -7.596 8.295 -5.688 2.688 C-3.688 0.625 -3.688 0.625 0 0 Z " fill="#000000" transform="translate(17.6875,60.375)"/>
</svg>
