<svg xmlns="http://www.w3.org/2000/svg" width="220" height="249" viewBox="32.8 10 219.8 249.1"><path fill="rgba(76,94,180,1.000)" d="M87.6 10c3.4.1 6.5 1.2 9.4 3.1 7.6 5.2 14.6 11 20.3 18.2l-14.3.5-1 7.9c-2.3-1.4-4.5-2.4-5.7-4.8-4.3-7.7-7-16.4-8.7-24.9Z"/><path fill="rgba(76,94,180,1.000)" d="M130.9 40.1c5.1 2.3 10 5.3 15 7.9 4.4 2.4 7.5 6 10.4 9.9 3.2 3.8 6.5 6.8 8.6 11.3 1.9 4.1 3.6 8.5 4.3 12.9.6 4.5-2.3 9.6-4.4 13.5-3.4 6.3-8.5 11.4-15.8 12.7a30 30 0 0 1-17.3-1.9A45 45 0 0 1 114 89.2c-5-8-6.6-17.1-8.2-26.2a29 29 0 0 1 1-12.1c.7-3.1 1.6-5.8 4.2-7.8a19.9 19.9 0 0 1 19.9-3Z"/><path fill="rgba(76,94,180,1.000)" d="M166.8 48.4c8.1 3.9 16 9.3 21.6 16.5-3.5.4-7.1.4-10.5 1.1-1.1.2-1.3 1-1.8 1.8-1.3 2.5-2.3 5-3.4 7.6-1.4-2.7-2.8-5.3-3.3-8.4-1.1-6.4-2.9-12.2-2.6-18.6Z"/><path fill="rgba(76,94,180,1.000)" d="M32.8 48c3.2.8 6.2 1.3 8.8 3.4 6.9 5.2 13.4 10.9 20.5 15.8a32.5 32.5 0 0 1-13.5 1.5c-1.9 3-3.1 6.4-4.5 9.6l-9.2-18.1c-2-3.9-2-7.9-2.1-12.2Z"/><path fill="rgba(76,94,180,1.000)" d="M188.1 72.6c8.1-1 16.2.1 23.4 4 4.8 2.7 8.7 7.4 12.7 11.2 3.3 3.5 7.4 6.9 9.8 11.1a65.6 65.6 0 0 1 6 15.4c.6 2.1 1.2 4 .5 6.1A37.7 37.7 0 0 1 229 139a23 23 0 0 1-13.4 4.5 26.1 26.1 0 0 1-17.2-6.9 59.1 59.1 0 0 1-11.5-13.4A68.9 68.9 0 0 1 179 99c-.8-7.1-.9-14.9 2.9-21.2 1.4-2.2 3.5-5 6.2-5.2Z"/><path fill="rgba(76,94,180,1.000)" d="M68.9 75.1a49.4 49.4 0 0 1 22.2 9.7c4.2 3.6 8.4 7 12.4 10.7 3.4 3.1 5.4 7 7.1 11.2 1.9 5 3.9 9.9 3.9 15.3.1 7.6-4.2 14.9-10 19.6-3.6 2.8-7.7 5.9-12.5 5.9-6 .2-12.5-1.6-17.3-5.3-6.7-5.6-11.6-14.3-16-21.8-3.8-6.7-4.5-13.5-6-20.9-1.1-6.1.1-12.5 3.2-17.8 2.6-4 8.7-5.6 13-6.6Z"/><path fill="rgba(76,94,180,1.000)" d="M147.9 121.2c5.3.1 11 1.3 15.6 4.3l10.1 6.1c4 2.5 6.5 5.9 9.8 9.1 2.7 2.7 5.7 4.8 8.7 7.3 2.4 1.9 4.7 4.1 7.4 5.5 3.4 1.7 6.8 2.4 10.5 2.9 6.3.9 12.6 2.3 18.9 3.5 8 1.6 15.3 7.5 20.6 13.6 4.1 5 4.1 11 3.1 17.2-1.4 6.4-4 12.5-8.6 17.3-4.3 4.5-9.4 8.8-15.9 8.8-7.4.6-13.8-3.1-21-2.4-5.1.5-10.7 3.9-13.5 8.1-3.3 5-2.6 10.8-3.1 16.5-.3 5.1-3.6 9.9-7.1 13.4-4.2 4.2-10.8 5.3-16.3 6.7-4.9 1.1-11.1 1.9-15.6-.7-3.7-2-7.4-4.6-10.5-7.4-3.8-3.5-4.9-8.6-6.1-13.4a40.2 40.2 0 0 1-.1-21.5c1.9-7.2 4.8-13 3.3-20.7-2.5-10.9-7.7-21.2-11.1-31.8-1.3-7-3.5-15-1.5-21.9 1.3-5.4 2.5-11.3 7.3-14.8 4.3-3.1 9.7-5.5 15.1-5.7Z"/><path fill="rgba(76,94,180,1.000)" d="M48.4 134.3c4.2 2.2 7.8 5.2 12.1 7.3 3.5 1.7 6.2 4.1 8.8 7-3.5 1-7.8 1.6-10.7 3.8-1.4 2.1-2.1 4.7-2.9 7h-2.3c-1.4-3.4-3-6.7-4.6-10a19.8 19.8 0 0 1-.4-15.1Z"/><path fill="rgba(76,94,180,1.000)" d="M67.6 157.5c5-2 11.6-1.3 16.7.2a55.9 55.9 0 0 1 31.4 25.9c2.8 5.4 6.4 11.1 5.8 17.4a27 27 0 0 1-7.8 17.7c-4.1 3.9-9.7 8-15.7 7.8a30.1 30.1 0 0 1-21.2-10.3 56.6 56.6 0 0 1-14.6-24.4c-2.4-7.8-4.5-16.6-1-24.4 1.6-3.4 3.4-7.5 6.4-9.9Z"/></svg>