<svg width="1000" height="200" xmlns="http://www.w3.org/2000/svg" viewBox="0 0 1000 200">
  <!-- Background mountains layer (furthest) -->
  <path d="M 0 200 L 0 120 Q 100 90 150 100 T 300 110 L 350 90 Q 400 70 450 85 T 600 100 L 650 80 Q 750 60 850 90 T 1000 110 L 1000 200 Z"
        fill="rgba(176, 196, 177, 0.3)"/>

  <!-- Middle mountains layer -->
  <path d="M 0 200 L 0 140 Q 80 110 140 125 T 280 140 L 340 115 Q 420 85 500 110 T 680 130 L 750 105 Q 850 80 920 105 T 1000 130 L 1000 200 Z"
        fill="rgba(176, 196, 177, 0.5)"/>

  <!-- Front mountains layer (closest) -->
  <path d="M 0 200 L 0 160 Q 60 140 120 150 T 240 165 L 300 145 Q 380 120 460 140 T 620 160 L 700 135 Q 800 110 880 135 T 1000 155 L 1000 200 Z"
        fill="rgba(176, 196, 177, 0.7)"/>
</svg>
