<svg width="200" height="200" xmlns="http://www.w3.org/2000/svg">
  <defs>
    <pattern id="topo" x="0" y="0" width="200" height="200" patternUnits="userSpaceOnUse">
      <path d="M 0 40 Q 50 35 100 40 T 200 40" fill="none" stroke="rgba(176, 196, 177, 0.15)" stroke-width="1.5"/>
      <path d="M 0 80 Q 50 75 100 80 T 200 80" fill="none" stroke="rgba(176, 196, 177, 0.15)" stroke-width="1.5"/>
      <path d="M 0 120 Q 50 115 100 120 T 200 120" fill="none" stroke="rgba(176, 196, 177, 0.15)" stroke-width="1.5"/>
      <path d="M 0 160 Q 50 155 100 160 T 200 160" fill="none" stroke="rgba(176, 196, 177, 0.15)" stroke-width="1.5"/>

      <path d="M 20 0 Q 20 50 25 100 T 20 200" fill="none" stroke="rgba(176, 196, 177, 0.1)" stroke-width="1"/>
      <path d="M 60 0 Q 60 50 65 100 T 60 200" fill="none" stroke="rgba(176, 196, 177, 0.1)" stroke-width="1"/>
      <path d="M 100 0 Q 100 50 105 100 T 100 200" fill="none" stroke="rgba(176, 196, 177, 0.1)" stroke-width="1"/>
      <path d="M 140 0 Q 140 50 145 100 T 140 200" fill="none" stroke="rgba(176, 196, 177, 0.1)" stroke-width="1"/>
      <path d="M 180 0 Q 180 50 185 100 T 180 200" fill="none" stroke="rgba(176, 196, 177, 0.1)" stroke-width="1"/>
    </pattern>
  </defs>
  <rect width="200" height="200" fill="url(#topo)"/>
</svg>
